<svg id="visual" viewBox="0 0 900 300" width="900" height="300" xmlns="http://www.w3.org/2000/svg" xmlns:xlink="http://www.w3.org/1999/xlink" version="1.1"><rect x="0" y="0" width="900" height="300" fill="#022d6a"></rect><path d="M0 159L7.2 162C14.3 165 28.7 171 43 167.5C57.3 164 71.7 151 86 144.2C100.3 137.3 114.7 136.7 128.8 135C143 133.3 157 130.7 171.2 122.8C185.3 115 199.7 102 214 102.2C228.3 102.3 242.7 115.7 257 130.5C271.3 145.3 285.7 161.7 300 167.8C314.3 174 328.7 170 343 152.3C357.3 134.7 371.7 103.3 386 88C400.3 72.7 414.7 73.3 428.8 88C443 102.7 457 131.3 471.2 130.3C485.3 129.3 499.7 98.7 514 82.5C528.3 66.3 542.7 64.7 557 80C571.3 95.3 585.7 127.7 600 144.2C614.3 160.7 628.7 161.3 643 153.2C657.3 145 671.7 128 686 125.5C700.3 123 714.7 135 728.8 137.2C743 139.3 757 131.7 771.2 128.3C785.3 125 799.7 126 814 116.5C828.3 107 842.7 87 857 75.7C871.3 64.3 885.7 61.7 892.8 60.3L900 59L900 0L892.8 0C885.7 0 871.3 0 857 0C842.7 0 828.3 0 814 0C799.7 0 785.3 0 771.2 0C757 0 743 0 728.8 0C714.7 0 700.3 0 686 0C671.7 0 657.3 0 643 0C628.7 0 614.3 0 600 0C585.7 0 571.3 0 557 0C542.7 0 528.3 0 514 0C499.7 0 485.3 0 471.2 0C457 0 443 0 428.8 0C414.7 0 400.3 0 386 0C371.7 0 357.3 0 343 0C328.7 0 314.3 0 300 0C285.7 0 271.3 0 257 0C242.7 0 228.3 0 214 0C199.7 0 185.3 0 171.2 0C157 0 143 0 128.8 0C114.7 0 100.3 0 86 0C71.7 0 57.3 0 43 0C28.7 0 14.3 0 7.2 0L0 0Z" fill="#b33333" stroke-linecap="round" stroke-linejoin="miter"></path></svg>