<svg id="visual" viewBox="0 0 900 300" width="900" height="300" xmlns="http://www.w3.org/2000/svg" xmlns:xlink="http://www.w3.org/1999/xlink" version="1.1"><rect x="0" y="0" width="900" height="300" fill="#202731"></rect><path d="M0 177L9.3 177C18.7 177 37.3 177 56.2 176.2C75 175.3 94 173.7 112.8 183.5C131.7 193.3 150.3 214.7 169 215.3C187.7 216 206.3 196 225 182.8C243.7 169.7 262.3 163.3 281.2 172.7C300 182 319 207 337.8 206C356.7 205 375.3 178 394 177C412.7 176 431.3 201 450 208.8C468.7 216.7 487.3 207.3 506.2 203.3C525 199.3 544 200.7 562.8 197.7C581.7 194.7 600.3 187.3 619 193.8C637.7 200.3 656.3 220.7 675 217.5C693.7 214.3 712.3 187.7 731.2 180.7C750 173.7 769 186.3 787.8 200.3C806.7 214.3 825.3 229.7 844 223.2C862.7 216.7 881.3 188.3 890.7 174.2L900 160L900 301L890.7 301C881.3 301 862.7 301 844 301C825.3 301 806.7 301 787.8 301C769 301 750 301 731.2 301C712.3 301 693.7 301 675 301C656.3 301 637.7 301 619 301C600.3 301 581.7 301 562.8 301C544 301 525 301 506.2 301C487.3 301 468.7 301 450 301C431.3 301 412.7 301 394 301C375.3 301 356.7 301 337.8 301C319 301 300 301 281.2 301C262.3 301 243.7 301 225 301C206.3 301 187.7 301 169 301C150.3 301 131.7 301 112.8 301C94 301 75 301 56.2 301C37.3 301 18.7 301 9.3 301L0 301Z" fill="#b33333" stroke-linecap="round" stroke-linejoin="miter"></path></svg>